<svg width="21" height="21" viewBox="0 0 21 21" fill="none" xmlns="http://www.w3.org/2000/svg">
<path d="M11.0697 8.92276L5.56066 14.4328L3.69066 13.6558L3.52366 13.8248L5.90366 15.4118L7.49166 17.7918L7.65966 17.6238L6.88366 15.7538L12.3927 10.2458L16.7207 16.4978L16.9307 16.2898L14.0437 8.59376L18.4437 4.19576C18.6098 4.01845 18.7004 3.78351 18.6965 3.54058C18.6925 3.29766 18.5942 3.06579 18.4224 2.89399C18.2506 2.72219 18.0188 2.62393 17.7758 2.61997C17.5329 2.61601 17.298 2.70666 17.1207 2.87276L12.7207 7.27176L5.02666 4.38576L4.81666 4.59476L11.0697 8.92276ZM16.4597 19.4058L12.1297 13.1528L9.08966 16.1928L9.86666 18.0628L7.20066 20.7278L4.55566 16.7608L0.587662 14.1148L3.25366 11.4488L5.12266 12.2248L8.16266 9.18476L1.90966 4.85676L4.55566 2.21176L12.2507 5.09676L15.7977 1.54976C16.0571 1.28409 16.3666 1.07254 16.7084 0.927376C17.0501 0.782214 17.4173 0.706324 17.7886 0.704106C18.1599 0.701888 18.528 0.773385 18.8714 0.914454C19.2149 1.05552 19.527 1.26336 19.7895 1.52591C20.0521 1.78847 20.2599 2.10053 20.401 2.44399C20.542 2.78746 20.6135 3.15552 20.6113 3.52682C20.6091 3.89812 20.5332 4.26529 20.388 4.60705C20.2429 4.94881 20.0313 5.25836 19.7657 5.51776L16.2187 9.06476L19.1047 16.7608L16.4587 19.4058H16.4597Z" fill="#70A6E8"/>
</svg>
