<svg width="23" height="19" viewBox="0 0 23 19" fill="none" xmlns="http://www.w3.org/2000/svg">
<path d="M13.4638 1.48873H3.89349C2.78892 1.48873 1.89349 2.38416 1.89349 3.48873V11.2497C1.89349 12.3543 2.78892 13.2497 3.89349 13.2497H13.4638C14.5684 13.2497 15.4638 12.3543 15.4638 11.2497V3.48873C15.4638 2.38416 14.5684 1.48873 13.4638 1.48873Z" stroke="#22A447" stroke-width="2" stroke-linecap="round" stroke-linejoin="round"/>
<path d="M15.4628 8.01315C15.4628 6.90858 16.3583 6.01315 17.4628 6.01315H18.2532C18.7836 6.01315 19.2923 6.22386 19.6674 6.59893L21.2099 8.14143C21.5849 8.5165 21.7957 9.02521 21.7957 9.55564V11.2507C21.7957 12.3552 20.9002 13.2507 19.7957 13.2507H17.4628C16.3583 13.2507 15.4628 12.3552 15.4628 11.2507V8.01315Z" stroke="#22A447" stroke-width="2" stroke-linecap="round" stroke-linejoin="round"/>
<path d="M5.96479 17.7719C7.2139 17.7719 8.22651 16.7593 8.22651 15.5102C8.22651 14.2611 7.2139 13.2485 5.96479 13.2485C4.71567 13.2485 3.70306 14.2611 3.70306 15.5102C3.70306 16.7593 4.71567 17.7719 5.96479 17.7719Z" stroke="#22A447" stroke-width="2" stroke-linecap="round" stroke-linejoin="round"/>
<path d="M17.7246 17.7719C18.9737 17.7719 19.9863 16.7593 19.9863 15.5102C19.9863 14.2611 18.9737 13.2485 17.7246 13.2485C16.4754 13.2485 15.4628 14.2611 15.4628 15.5102C15.4628 16.7593 16.4754 17.7719 17.7246 17.7719Z" stroke="#22A447" stroke-width="2" stroke-linecap="round" stroke-linejoin="round"/>
</svg>
