<svg width="25" height="24" viewBox="0 0 25 24" fill="none" xmlns="http://www.w3.org/2000/svg">
<path d="M23.1219 18.1076L18.2028 13.1801V9.52668C18.2035 9.41564 18.1822 9.30556 18.1402 9.20276C18.0982 9.09996 18.0363 9.00646 17.9581 8.92762L9.52064 0.490119C9.4422 0.411036 9.34888 0.348266 9.24607 0.30543C9.14325 0.262594 9.03296 0.24054 8.92158 0.24054C8.81019 0.24054 8.69991 0.262594 8.59709 0.30543C8.49427 0.348266 8.40095 0.411036 8.32252 0.490119L0.728767 8.08387C0.649683 8.16231 0.586913 8.25563 0.544077 8.35845C0.501241 8.46126 0.479187 8.57155 0.479187 8.68293C0.479187 8.79432 0.501241 8.9046 0.544077 9.00742C0.586913 9.11024 0.649683 9.20356 0.728767 9.28199L9.16627 17.7195C9.24511 17.7977 9.33861 17.8596 9.44141 17.9016C9.54421 17.9435 9.65429 17.9648 9.76533 17.9642H13.4272L18.3463 22.8917C18.9796 23.525 19.8385 23.8807 20.7341 23.8807C21.6297 23.8807 22.4886 23.525 23.1219 22.8917C23.7552 22.2584 24.111 21.3995 24.111 20.5039C24.111 19.6083 23.7552 18.7493 23.1219 18.1161V18.1076ZM3.85908 7.34137L5.79127 9.28199L6.98939 8.08387L5.04877 6.15168L6.39033 4.81012L10.01 8.43824L11.2081 7.24012L7.58002 3.62043L8.92158 2.27887L14.4819 7.83918L8.07783 14.2432L2.51752 8.68293L3.85908 7.34137ZM21.9238 21.6851C21.6076 21.9994 21.1799 22.1758 20.7341 22.1758C20.2883 22.1758 19.8606 21.9994 19.5444 21.6851L14.3722 16.5214C14.1924 16.3977 13.9881 16.3143 13.7731 16.2767H10.1113L9.26752 15.4329L15.6716 9.02887L16.5153 9.87262V13.5345C16.5163 13.7558 16.6041 13.968 16.76 14.1251L21.9238 19.3057C22.2381 19.6219 22.4145 20.0496 22.4145 20.4954C22.4145 20.9412 22.2381 21.3689 21.9238 21.6851Z" fill="url(#paint0_linear_1_275)"/>
<path d="M21.9238 21.6851C21.6076 21.9994 21.1799 22.1758 20.7341 22.1758C20.2883 22.1758 19.8606 21.9994 19.5444 21.6851L14.3722 16.5214C14.1924 16.3977 13.9881 16.3143 13.7731 16.2767H10.1113L9.26752 15.4329L15.6716 9.02887L16.5153 9.87262V13.5345C16.5163 13.7558 16.6041 13.968 16.76 14.1251L21.9238 19.3057C22.2381 19.6219 22.4145 20.0496 22.4145 20.4954C22.4145 20.9412 22.2381 21.3689 21.9238 21.6851Z" fill="url(#paint1_linear_1_275)"/>
<defs>
<linearGradient id="paint0_linear_1_275" x1="12.2951" y1="0.24054" x2="12.2951" y2="23.8807" gradientUnits="userSpaceOnUse">
<stop stop-color="#FFA764"/>
<stop offset="1" stop-color="#F17F29"/>
</linearGradient>
<linearGradient id="paint1_linear_1_275" x1="12.2951" y1="0.24054" x2="12.2951" y2="23.8807" gradientUnits="userSpaceOnUse">
<stop stop-color="#FFA764"/>
<stop offset="1" stop-color="#F17F29"/>
</linearGradient>
</defs>
</svg>
