<svg width="45" height="30" viewBox="0 0 45 30" fill="none" xmlns="http://www.w3.org/2000/svg">
<path d="M18.3635 20.3729C18.3635 25.2796 14.3858 29.2573 9.47907 29.2573C4.57235 29.2573 0.594666 25.2796 0.594666 20.3729C0.594666 17.7859 1.70037 15.4571 3.46497 13.8334C5.04727 12.3775 7.15934 11.4885 9.47907 11.4885C14.3858 11.4885 18.3635 15.4661 18.3635 20.3729Z" fill="#197BBD"/>
<path d="M44.0045 20.3729C44.0045 25.2796 40.0268 29.2573 35.1201 29.2573C30.2134 29.2573 26.2357 25.2796 26.2357 20.3729C26.2357 19.7461 26.3006 19.1345 26.424 18.5444C27.267 14.5149 30.8401 11.4885 35.1201 11.4885C40.0268 11.4885 44.0045 15.4661 44.0045 20.3729Z" fill="#197BBD"/>
<path d="M34.027 9.75171C34.027 14.2233 30.7236 17.9233 26.424 18.5444C26.0056 18.6048 25.5778 18.6361 25.1426 18.6361C20.8303 18.6361 17.2355 15.5637 16.4279 11.4885C16.3166 10.9268 16.2582 10.3461 16.2582 9.75171C16.2582 8.97112 16.3589 8.21404 16.548 7.49275C17.5473 3.68007 21.0165 0.86731 25.1426 0.86731C30.0494 0.86731 34.027 4.84499 34.027 9.75171Z" fill="#197BBD"/>
<path d="M18.3635 20.3729C18.3635 25.2796 14.3858 29.2573 9.47907 29.2573H35.1201C30.2134 29.2573 26.2357 25.2796 26.2357 20.3729C26.2357 19.7461 26.3006 19.1345 26.424 18.5444C26.0056 18.6048 25.5778 18.6361 25.1426 18.6361C20.8303 18.6361 17.2355 15.5637 16.4279 11.4885H10.6326H9.47907C14.3858 11.4885 18.3635 15.4661 18.3635 20.3729Z" fill="#197BBD"/>
<path d="M16.4279 11.4885C16.3166 10.9268 16.2582 10.3461 16.2582 9.75171C16.2582 8.97112 16.3589 8.21404 16.548 7.49275C15.8055 8.82465 13.5831 11.4885 10.6326 11.4885H16.4279Z" fill="#197BBD"/>
</svg>
