<svg width="137" height="30" viewBox="0 0 137 30" fill="none" xmlns="http://www.w3.org/2000/svg">
<path d="M60.211 12.3146C61.16 12.3146 61.9248 12.4654 62.5054 12.7668C63.086 13.0571 63.3762 13.4479 63.3762 13.9391C63.3762 14.1848 63.3037 14.4025 63.1585 14.5923C63.0134 14.7709 62.8236 14.8602 62.5891 14.8602C62.4105 14.8602 62.2653 14.8379 62.1537 14.7933C62.042 14.7374 61.9304 14.6704 61.8187 14.5923C61.7182 14.503 61.6178 14.4304 61.5173 14.3746C61.4056 14.3187 61.2382 14.2685 61.0148 14.2238C60.8027 14.1792 60.6297 14.1569 60.4957 14.1569C59.6583 14.1569 58.9996 14.4192 58.5195 14.944C58.0505 15.4576 57.8161 16.1331 57.8161 16.9704C57.8161 17.7743 58.0561 18.4442 58.5362 18.9801C59.0163 19.5049 59.6304 19.7673 60.3784 19.7673C60.9255 19.7673 61.3331 19.7003 61.601 19.5663C61.668 19.5328 61.7573 19.477 61.869 19.3988C61.9918 19.3095 62.1034 19.2425 62.2039 19.1979C62.3044 19.1532 62.4272 19.1309 62.5724 19.1309C62.8515 19.1309 63.0692 19.2202 63.2255 19.3988C63.393 19.5775 63.4767 19.8063 63.4767 20.0855C63.4767 20.3534 63.3204 20.6046 63.0078 20.8391C62.6952 21.0736 62.2821 21.2634 61.7685 21.4085C61.2549 21.5425 60.7078 21.6095 60.1272 21.6095C59.2675 21.6095 58.5083 21.4085 57.8496 21.0066C57.202 20.6046 56.6996 20.052 56.3423 19.3486C55.985 18.634 55.8064 17.8413 55.8064 16.9704C55.8064 16.0661 55.9906 15.2622 56.359 14.5588C56.7387 13.8554 57.2634 13.3083 57.9333 12.9175C58.6032 12.5156 59.3624 12.3146 60.211 12.3146ZM67.1051 20.4204C67.1051 20.7107 67.0046 20.9563 66.8036 21.1573C66.6138 21.3471 66.3737 21.442 66.0835 21.442C65.8043 21.442 65.5699 21.3471 65.3801 21.1573C65.1903 20.9563 65.0954 20.7107 65.0954 20.4204V10.0705C65.0954 9.78017 65.1903 9.54013 65.3801 9.35032C65.581 9.14935 65.8267 9.04887 66.1169 9.04887C66.3961 9.04887 66.6305 9.14935 66.8203 9.35032C67.0101 9.54013 67.1051 9.78017 67.1051 10.0705V20.4204ZM77.8865 16.9704C77.8865 17.8636 77.6855 18.6675 77.2836 19.3821C76.8817 20.0855 76.329 20.6326 75.6256 21.0233C74.9334 21.4141 74.1686 21.6095 73.3312 21.6095C72.4827 21.6095 71.7123 21.4141 71.02 21.0233C70.3278 20.6326 69.7807 20.0855 69.3788 19.3821C68.9768 18.6675 68.7759 17.8636 68.7759 16.9704C68.7759 16.0772 68.9768 15.2789 69.3788 14.5755C69.7807 13.861 70.3278 13.3083 71.02 12.9175C71.7123 12.5156 72.4827 12.3146 73.3312 12.3146C74.1686 12.3146 74.9334 12.5156 75.6256 12.9175C76.329 13.3083 76.8817 13.861 77.2836 14.5755C77.6855 15.2789 77.8865 16.0772 77.8865 16.9704ZM75.8768 16.9704C75.8768 16.4233 75.7596 15.9377 75.5251 15.5134C75.3018 15.078 74.9948 14.743 74.604 14.5086C74.2244 14.2741 73.8001 14.1569 73.3312 14.1569C72.8623 14.1569 72.4324 14.2741 72.0416 14.5086C71.662 14.743 71.355 15.078 71.1205 15.5134C70.8972 15.9377 70.7856 16.4233 70.7856 16.9704C70.7856 17.5175 70.8972 18.0032 71.1205 18.4275C71.355 18.8517 71.662 19.1811 72.0416 19.4156C72.4324 19.65 72.8623 19.7673 73.3312 19.7673C73.8001 19.7673 74.2244 19.65 74.604 19.4156C74.9948 19.1811 75.3018 18.8517 75.5251 18.4275C75.7596 18.0032 75.8768 17.5175 75.8768 16.9704ZM86.2143 12.4821C86.5046 12.4821 86.7447 12.5826 86.9345 12.7836C87.1243 12.9734 87.2192 13.2134 87.2192 13.5037V17.7576C87.2192 18.9634 86.8842 19.9068 86.2143 20.5879C85.5556 21.269 84.6122 21.6095 83.384 21.6095C82.1559 21.6095 81.2124 21.269 80.5537 20.5879C79.895 19.9068 79.5656 18.9634 79.5656 17.7576V13.5037C79.5656 13.2134 79.6605 12.9734 79.8503 12.7836C80.0401 12.5826 80.2801 12.4821 80.5704 12.4821C80.8607 12.4821 81.1008 12.5826 81.2906 12.7836C81.4804 12.9734 81.5753 13.2134 81.5753 13.5037V17.7576C81.5753 18.4386 81.726 18.9466 82.0275 19.2816C82.3289 19.6054 82.7811 19.7673 83.384 19.7673C83.9981 19.7673 84.4559 19.6054 84.7573 19.2816C85.0588 18.9466 85.2095 18.4386 85.2095 17.7576V13.5037C85.2095 13.2134 85.3044 12.9734 85.4942 12.7836C85.684 12.5826 85.9241 12.4821 86.2143 12.4821ZM96.6466 9.04887C96.9369 9.04887 97.1769 9.14377 97.3667 9.33357C97.5565 9.52338 97.6514 9.76901 97.6514 10.0705V20.4204C97.6514 20.7107 97.5565 20.9563 97.3667 21.1573C97.1769 21.3471 96.9369 21.442 96.6466 21.442C96.3563 21.442 96.1163 21.3471 95.9265 21.1573C95.7478 20.9675 95.6529 20.7275 95.6417 20.4372C95.3626 20.761 94.983 21.0401 94.5029 21.2745C94.034 21.4978 93.5371 21.6095 93.0124 21.6095C92.242 21.6095 91.5442 21.4141 90.9189 21.0233C90.2937 20.6214 89.7969 20.0687 89.4284 19.3653C89.0711 18.6619 88.8925 17.8636 88.8925 16.9704C88.8925 16.0772 89.0711 15.2789 89.4284 14.5755C89.7857 13.861 90.2714 13.3083 90.8855 12.9175C91.5107 12.5156 92.1973 12.3146 92.9454 12.3146C93.4813 12.3146 93.9837 12.4151 94.4527 12.6161C94.9216 12.8059 95.318 13.0515 95.6417 13.353V10.0705C95.6417 9.78017 95.7366 9.54013 95.9265 9.35032C96.1163 9.14935 96.3563 9.04887 96.6466 9.04887ZM93.2636 19.7673C93.9893 19.7673 94.5811 19.5049 95.0388 18.9801C95.4966 18.4442 95.7255 17.7743 95.7255 16.9704C95.7255 16.1666 95.4966 15.4967 95.0388 14.9607C94.5811 14.4248 93.9893 14.1569 93.2636 14.1569C92.549 14.1569 91.9629 14.4248 91.5051 14.9607C91.0473 15.4967 90.8185 16.1666 90.8185 16.9704C90.8185 17.7743 91.0418 18.4442 91.4884 18.9801C91.9461 19.5049 92.5379 19.7673 93.2636 19.7673ZM103.732 12.3146C104.681 12.3146 105.445 12.4654 106.026 12.7668C106.607 13.0571 106.897 13.4479 106.897 13.9391C106.897 14.1848 106.824 14.4025 106.679 14.5923C106.534 14.7709 106.344 14.8602 106.11 14.8602C105.931 14.8602 105.786 14.8379 105.674 14.7933C105.563 14.7374 105.451 14.6704 105.339 14.5923C105.239 14.503 105.138 14.4304 105.038 14.3746C104.926 14.3187 104.759 14.2685 104.535 14.2238C104.323 14.1792 104.15 14.1569 104.016 14.1569C103.179 14.1569 102.52 14.4192 102.04 14.944C101.571 15.4576 101.337 16.1331 101.337 16.9704C101.337 17.7743 101.577 18.4442 102.057 18.9801C102.537 19.5049 103.151 19.7673 103.899 19.7673C104.446 19.7673 104.854 19.7003 105.122 19.5663C105.189 19.5328 105.278 19.477 105.39 19.3988C105.512 19.3095 105.624 19.2425 105.725 19.1979C105.825 19.1532 105.948 19.1309 106.093 19.1309C106.372 19.1309 106.59 19.2202 106.746 19.3988C106.914 19.5775 106.997 19.8063 106.997 20.0855C106.997 20.3534 106.841 20.6046 106.528 20.8391C106.216 21.0736 105.803 21.2634 105.289 21.4085C104.775 21.5425 104.228 21.6095 103.648 21.6095C102.788 21.6095 102.029 21.4085 101.37 21.0066C100.723 20.6046 100.22 20.052 99.8629 19.3486C99.5056 18.634 99.327 17.8413 99.327 16.9704C99.327 16.0661 99.5112 15.2622 99.8796 14.5588C100.259 13.8554 100.784 13.3083 101.454 12.9175C102.124 12.5156 102.883 12.3146 103.732 12.3146ZM115.7 12.3146C115.99 12.3146 116.23 12.4095 116.42 12.5993C116.61 12.7891 116.705 13.0348 116.705 13.3362V20.4204C116.705 20.7107 116.61 20.9563 116.42 21.1573C116.23 21.3471 115.99 21.442 115.7 21.442C115.41 21.442 115.17 21.3471 114.98 21.1573C114.801 20.9675 114.706 20.7275 114.695 20.4372C114.416 20.761 114.037 21.0401 113.556 21.2745C113.088 21.4978 112.591 21.6095 112.066 21.6095C111.296 21.6095 110.598 21.4141 109.972 21.0233C109.347 20.6214 108.85 20.0687 108.482 19.3653C108.125 18.6619 107.946 17.8636 107.946 16.9704C107.946 16.0772 108.125 15.2789 108.482 14.5755C108.839 13.861 109.325 13.3083 109.939 12.9175C110.564 12.5156 111.251 12.3146 111.999 12.3146C112.535 12.3146 113.037 12.4151 113.506 12.6161C113.975 12.8059 114.372 13.0515 114.695 13.353V13.3362C114.695 13.0459 114.79 12.8059 114.98 12.6161C115.17 12.4151 115.41 12.3146 115.7 12.3146ZM112.317 19.7673C113.043 19.7673 113.635 19.5049 114.092 18.9801C114.55 18.4442 114.779 17.7743 114.779 16.9704C114.779 16.1666 114.55 15.4967 114.092 14.9607C113.635 14.4248 113.043 14.1569 112.317 14.1569C111.603 14.1569 111.016 14.4248 110.559 14.9607C110.101 15.4967 109.872 16.1666 109.872 16.9704C109.872 17.7743 110.095 18.4442 110.542 18.9801C111 19.5049 111.591 19.7673 112.317 19.7673ZM118.364 20.052C118.263 19.918 118.213 19.7505 118.213 19.5495C118.213 19.2593 118.358 19.0136 118.648 18.8127C118.805 18.7122 118.967 18.6619 119.134 18.6619C119.369 18.6619 119.592 18.768 119.804 18.9801C120.139 19.3262 120.485 19.583 120.842 19.7505C121.211 19.918 121.652 20.0017 122.165 20.0017C123.036 19.9682 123.472 19.6389 123.472 19.0136C123.472 18.6898 123.321 18.4442 123.02 18.2767C122.729 18.1093 122.272 17.9418 121.646 17.7743C120.999 17.5957 120.468 17.417 120.055 17.2384C119.653 17.0598 119.302 16.7918 119 16.4345C118.71 16.0661 118.565 15.5748 118.565 14.9607C118.565 14.4248 118.715 13.9615 119.017 13.5707C119.33 13.1688 119.731 12.8617 120.223 12.6496C120.725 12.4263 121.256 12.3146 121.814 12.3146C122.383 12.3146 122.953 12.4207 123.522 12.6328C124.091 12.845 124.538 13.1576 124.862 13.5707C125.007 13.7493 125.08 13.9503 125.08 14.1736C125.08 14.4304 124.973 14.6425 124.761 14.81C124.605 14.9328 124.426 14.9942 124.225 14.9942C123.98 14.9942 123.779 14.9161 123.622 14.7598C123.422 14.5141 123.159 14.3187 122.835 14.1736C122.523 14.0285 122.165 13.9559 121.764 13.9559C120.915 13.9559 120.491 14.2629 120.491 14.877C120.491 15.1226 120.569 15.3236 120.725 15.4799C120.881 15.6251 121.077 15.7423 121.311 15.8316C121.557 15.9098 121.898 16.0102 122.333 16.1331C122.936 16.3005 123.438 16.4736 123.84 16.6522C124.242 16.8309 124.583 17.1044 124.862 17.4729C125.141 17.8413 125.281 18.327 125.281 18.9299C125.281 19.477 125.119 19.9571 124.795 20.3702C124.471 20.7721 124.052 21.0792 123.539 21.2913C123.036 21.5034 122.517 21.6095 121.981 21.6095C121.244 21.6095 120.558 21.4867 119.921 21.241C119.285 20.9954 118.766 20.5991 118.364 20.052ZM131.668 12.3146C132.774 12.3146 133.538 12.6552 133.963 13.3362C134.387 14.0061 134.599 14.9384 134.599 16.1331V20.4204C134.599 20.7107 134.504 20.9563 134.314 21.1573C134.125 21.3471 133.885 21.442 133.594 21.442C133.304 21.442 133.064 21.3471 132.874 21.1573C132.684 20.9563 132.589 20.7107 132.589 20.4204V16.1331C132.589 15.519 132.467 15.0389 132.221 14.6928C131.987 14.3355 131.568 14.1569 130.965 14.1569C130.34 14.1569 129.848 14.3467 129.491 14.7263C129.145 15.0947 128.972 15.5636 128.972 16.1331V20.4204C128.972 20.7107 128.877 20.9563 128.687 21.1573C128.498 21.3471 128.257 21.442 127.967 21.442C127.677 21.442 127.437 21.3471 127.247 21.1573C127.057 20.9563 126.962 20.7107 126.962 20.4204V10.0705C126.962 9.78017 127.057 9.54013 127.247 9.35032C127.437 9.14935 127.677 9.04887 127.967 9.04887C128.257 9.04887 128.498 9.14935 128.687 9.35032C128.877 9.54013 128.972 9.78017 128.972 10.0705V13.7717C129.273 13.3697 129.653 13.0292 130.111 12.7501C130.58 12.4598 131.099 12.3146 131.668 12.3146Z" fill="#0F4264"/>
<path d="M18.3635 20.3729C18.3635 25.2796 14.3858 29.2573 9.47907 29.2573C4.57235 29.2573 0.594666 25.2796 0.594666 20.3729C0.594666 17.7859 1.70037 15.4571 3.46497 13.8334C5.04727 12.3775 7.15934 11.4885 9.47907 11.4885C14.3858 11.4885 18.3635 15.4661 18.3635 20.3729Z" fill="#197BBD"/>
<path d="M44.0045 20.3729C44.0045 25.2796 40.0268 29.2573 35.1201 29.2573C30.2134 29.2573 26.2357 25.2796 26.2357 20.3729C26.2357 19.7461 26.3006 19.1345 26.424 18.5444C27.267 14.5149 30.8401 11.4885 35.1201 11.4885C40.0268 11.4885 44.0045 15.4661 44.0045 20.3729Z" fill="#197BBD"/>
<path d="M34.027 9.75171C34.027 14.2233 30.7236 17.9233 26.424 18.5444C26.0056 18.6048 25.5778 18.6361 25.1426 18.6361C20.8303 18.6361 17.2355 15.5637 16.4279 11.4885C16.3166 10.9268 16.2582 10.3461 16.2582 9.75171C16.2582 8.97112 16.3589 8.21404 16.548 7.49275C17.5473 3.68007 21.0165 0.86731 25.1426 0.86731C30.0494 0.86731 34.027 4.84499 34.027 9.75171Z" fill="#197BBD"/>
<path d="M18.3635 20.3729C18.3635 25.2796 14.3858 29.2573 9.47907 29.2573H35.1201C30.2134 29.2573 26.2357 25.2796 26.2357 20.3729C26.2357 19.7461 26.3006 19.1345 26.424 18.5444C26.0056 18.6048 25.5778 18.6361 25.1426 18.6361C20.8303 18.6361 17.2355 15.5637 16.4279 11.4885H10.6326H9.47907C14.3858 11.4885 18.3635 15.4661 18.3635 20.3729Z" fill="#197BBD"/>
<path d="M16.4279 11.4885C16.3166 10.9268 16.2582 10.3461 16.2582 9.75171C16.2582 8.97112 16.3589 8.21404 16.548 7.49275C15.8055 8.82465 13.5831 11.4885 10.6326 11.4885H16.4279Z" fill="#197BBD"/>
</svg>
