<svg width="23" height="22" viewBox="0 0 23 22" fill="none" xmlns="http://www.w3.org/2000/svg">
<circle cx="11.2619" cy="11.0472" r="8.01481" transform="rotate(-30 11.2619 11.0472)" fill="#FFC145"/>
<path d="M14.4974 11.237C14.7834 11.7324 14.8576 12.2472 14.7199 12.7814C14.5822 13.3156 14.2862 13.791 13.8319 14.2077L14.1774 14.8061C14.274 14.9734 14.2959 15.1452 14.2433 15.3214C14.2008 15.5004 14.0959 15.6382 13.9286 15.7347C13.7677 15.8276 13.5992 15.8477 13.4229 15.795C13.2504 15.7488 13.1158 15.6421 13.0192 15.4748L12.7072 14.9343C12.3412 15.1027 11.98 15.2126 11.6236 15.264C11.2736 15.3116 10.8966 15.2976 10.4927 15.222C10.2298 15.1679 10.0445 15.0475 9.93678 14.8609C9.85134 14.7129 9.83173 14.5527 9.87796 14.3802C9.92048 14.2012 10.0189 14.0671 10.1734 13.978C10.2956 13.9074 10.4273 13.8829 10.5684 13.9043C10.8607 13.95 11.1248 13.9691 11.3607 13.9616C11.5928 13.9477 11.8244 13.8955 12.0553 13.8051L10.9687 11.9231C9.538 12.4317 8.51804 12.1584 7.90882 11.1032C7.6005 10.5692 7.52805 10.0277 7.69148 9.47863C7.85119 8.92316 8.19508 8.44151 8.72314 8.03369L8.53926 7.7152C8.44268 7.54792 8.4175 7.37801 8.46373 7.20547C8.51268 7.02279 8.6208 6.88316 8.78808 6.78658C8.94894 6.69371 9.11749 6.67361 9.29373 6.72627C9.46626 6.7725 9.60082 6.87926 9.69741 7.04655L9.90357 7.40364C10.5062 7.1844 11.0717 7.12383 11.6002 7.22192C11.8722 7.26218 12.064 7.37882 12.1754 7.57184C12.2609 7.71983 12.2823 7.8833 12.2398 8.06227C12.1936 8.2348 12.0965 8.36378 11.9485 8.44922C11.852 8.50494 11.7484 8.52614 11.6378 8.51281C11.3519 8.4634 10.9985 8.48294 10.5778 8.57144L11.6086 10.3569C12.3182 10.1446 12.8981 10.1014 13.3484 10.2275C13.7949 10.3472 14.1779 10.6837 14.4974 11.237ZM9.0198 10.3975C9.14239 10.6098 9.31024 10.7445 9.52337 10.8016C9.73278 10.8523 9.99168 10.8401 10.3001 10.765L9.37508 9.16288C9.141 9.36666 8.9954 9.57511 8.9383 9.78824C8.88119 10.0014 8.90836 10.2044 9.0198 10.3975ZM13.1633 13.0496C13.3053 12.8647 13.3989 12.6776 13.4441 12.4885C13.4857 12.293 13.4637 12.1212 13.3783 11.9732C13.2742 11.7931 13.1336 11.6684 12.9564 11.5991C12.7754 11.5234 12.5528 11.5018 12.2884 11.5344L13.1633 13.0496Z" fill="#404040"/>
</svg>
