<svg width="128" height="36" viewBox="0 0 128 36" fill="none" xmlns="http://www.w3.org/2000/svg">
<circle cx="109.762" cy="18.4651" r="17.5292" fill="#FFC145"/>
<mask id="mask0_1_288" style="mask-type:alpha" maskUnits="userSpaceOnUse" x="92" y="0" width="36" height="36">
<circle cx="109.762" cy="18.4651" r="17.5292" fill="#FFC145"/>
</mask>
<g mask="url(#mask0_1_288)">
</g>
<path d="M62.405 15.4652C62.405 13.8739 61.7728 12.3478 60.6476 11.2226C59.5224 10.0974 57.9963 9.46521 56.405 9.46521C54.8137 9.46521 53.2875 10.0974 52.1623 11.2226C51.0371 12.3478 50.405 13.8739 50.405 15.4652C50.405 22.4652 47.405 24.4652 47.405 24.4652H65.405C65.405 24.4652 62.405 22.4652 62.405 15.4652Z" fill="#E3E3E3"/>
<path d="M58.135 28.4652C57.9591 28.7683 57.7068 29.0199 57.4032 29.1947C57.0996 29.3696 56.7553 29.4617 56.405 29.4617C56.0546 29.4617 55.7103 29.3696 55.4067 29.1947C55.1031 29.0199 54.8508 28.7683 54.675 28.4652" stroke="#E3E3E3" stroke-width="2" stroke-linecap="round" stroke-linejoin="round"/>
<circle cx="62.1064" cy="12.1635" r="3.97196" fill="#BB4430"/>
<path d="M4.40497 11.4652H20.405C21.505 11.4652 22.405 12.3652 22.405 13.4652V25.4652C22.405 26.5652 21.505 27.4652 20.405 27.4652H4.40497C3.30497 27.4652 2.40497 26.5652 2.40497 25.4652V13.4652C2.40497 12.3652 3.30497 11.4652 4.40497 11.4652Z" fill="#E3E3E3"/>
<path d="M22.405 13.4652L12.405 20.4652L2.40497 13.4652" stroke="white" stroke-width="2" stroke-linecap="round" stroke-linejoin="round"/>
<mask id="mask1_1_288" style="mask-type:alpha" maskUnits="userSpaceOnUse" x="92" y="0" width="36" height="36">
<circle cx="109.762" cy="18.4651" r="17.5292" fill="#FFC145"/>
</mask>
<g mask="url(#mask1_1_288)">
<path d="M120.595 38.0827V34.5019C120.595 32.6025 120.024 30.7809 119.009 29.4378C117.993 28.0947 116.615 27.3402 115.179 27.3402H104.346C102.909 27.3402 101.532 28.0947 100.516 29.4378C99.5001 30.7809 98.9294 32.6025 98.9294 34.5019V38.0827" fill="#197BBD"/>
<path d="M109.761 21.923C112.752 21.923 115.177 19.498 115.177 16.5066C115.177 13.5152 112.752 11.0902 109.761 11.0902C106.769 11.0902 104.344 13.5152 104.344 16.5066C104.344 19.498 106.769 21.923 109.761 21.923Z" fill="white"/>
</g>
</svg>
