<svg width="145" height="122" viewBox="0 0 145 122" fill="none" xmlns="http://www.w3.org/2000/svg">
<path d="M33.857 37.3662C33.857 46.4413 26.5002 53.7981 17.425 53.7981C8.34993 53.7981 0.993103 46.4413 0.993103 37.3662C0.993103 32.5815 3.03813 28.2744 6.30181 25.2713C9.22831 22.5785 13.1347 20.9342 17.425 20.9342C26.5002 20.9342 33.857 28.2911 33.857 37.3662Z" fill="#D15842"/>
<path d="M81.2807 37.3662C81.2807 46.4413 73.9239 53.7981 64.8488 53.7981C55.7737 53.7981 48.4168 46.4413 48.4168 37.3662C48.4168 36.2069 48.5369 35.0758 48.7652 33.9844C50.3244 26.5316 56.9329 20.9342 64.8488 20.9342C73.9239 20.9342 81.2807 28.2911 81.2807 37.3662Z" fill="#D15842"/>
<path d="M62.8272 17.7221C62.8272 25.9924 56.7174 32.8356 48.7652 33.9844C47.9914 34.0961 47.2001 34.154 46.3952 34.154C38.4194 34.154 31.7708 28.4715 30.2771 20.9342C30.0712 19.8954 29.9633 18.8213 29.9633 17.7221C29.9633 16.2783 30.1495 14.8781 30.4992 13.544C32.3475 6.49239 38.7638 1.29012 46.3952 1.29012C55.4703 1.29012 62.8272 8.64695 62.8272 17.7221Z" fill="#D15842"/>
<path d="M33.857 37.3662C33.857 46.4413 26.5002 53.7981 17.425 53.7981H64.8488C55.7737 53.7981 48.4168 46.4413 48.4168 37.3662C48.4168 36.2069 48.5369 35.0758 48.7652 33.9844C47.9914 34.0961 47.2001 34.154 46.3952 34.154C38.4194 34.154 31.7708 28.4715 30.2771 20.9342H19.5584H17.425C26.5002 20.9342 33.857 28.2911 33.857 37.3662Z" fill="#D15842"/>
<path d="M30.2771 20.9342C30.0712 19.8954 29.9633 18.8213 29.9633 17.7221C29.9633 16.2783 30.1495 14.8781 30.4992 13.544C29.126 16.0074 25.0155 20.9342 19.5584 20.9342H30.2771Z" fill="#D15842"/>
<path d="M113.096 24.4042C113.096 30.4147 108.224 35.2873 102.213 35.2873C96.2025 35.2873 91.33 30.4147 91.33 24.4042C91.33 21.2352 92.6845 18.3826 94.846 16.3936C96.7843 14.6101 99.3715 13.5211 102.213 13.5211C108.224 13.5211 113.096 18.3936 113.096 24.4042Z" fill="#D15842"/>
<path d="M144.505 24.4042C144.505 30.4147 139.633 35.2873 133.622 35.2873C127.612 35.2873 122.739 30.4147 122.739 24.4042C122.739 23.6364 122.819 22.8872 122.97 22.1644C124.003 17.2283 128.38 13.5211 133.622 13.5211C139.633 13.5211 144.505 18.3936 144.505 24.4042Z" fill="#D15842"/>
<path d="M132.283 11.3936C132.283 16.8712 128.237 21.4035 122.97 22.1644C122.458 22.2384 121.933 22.2767 121.4 22.2767C116.118 22.2767 111.714 18.5131 110.725 13.5211C110.589 12.8331 110.517 12.1217 110.517 11.3936C110.517 10.4374 110.641 9.51004 110.872 8.62649C112.096 3.95609 116.346 0.510559 121.4 0.510559C127.411 0.510559 132.283 5.38308 132.283 11.3936Z" fill="#D15842"/>
<path d="M113.096 24.4042C113.096 30.4147 108.224 35.2873 102.213 35.2873H133.622C127.612 35.2873 122.739 30.4147 122.739 24.4042C122.739 23.6364 122.819 22.8872 122.97 22.1644C122.458 22.2384 121.933 22.2767 121.4 22.2767C116.118 22.2767 111.714 18.5131 110.725 13.5211H103.626H102.213C108.224 13.5211 113.096 18.3936 113.096 24.4042Z" fill="#D15842"/>
<path d="M110.725 13.5211C110.589 12.8331 110.517 12.1217 110.517 11.3936C110.517 10.4374 110.641 9.51004 110.872 8.62649C109.963 10.258 107.24 13.5211 103.626 13.5211H110.725Z" fill="#D15842"/>
<circle cx="81.4155" cy="74.8679" r="14.5666" transform="rotate(-30 81.4155 74.8679)" fill="#D15842"/>
<path d="M87.2995 75.2197C87.8193 76.1201 87.9541 77.0557 87.7039 78.0266C87.4536 78.9974 86.9157 79.8615 86.09 80.6189L86.7179 81.7064C86.8934 82.0104 86.9333 82.3226 86.8376 82.6429C86.7603 82.9682 86.5697 83.2186 86.2657 83.3941C85.9733 83.5629 85.667 83.5994 85.3467 83.5037C85.0331 83.4197 84.7885 83.2257 84.613 82.9216L84.0459 81.9393C83.3807 82.2455 82.7242 82.4452 82.0764 82.5385C81.4404 82.6251 80.7553 82.5996 80.0211 82.4622C79.5433 82.3639 79.2065 82.1451 79.0107 81.806C78.8555 81.5371 78.8198 81.2458 78.9038 80.9322C78.9811 80.607 79.1601 80.3633 79.4407 80.2013C79.6629 80.073 79.9022 80.0284 80.1586 80.0674C80.6899 80.1505 81.1699 80.1852 81.5986 80.1716C82.0206 80.1462 82.4414 80.0514 82.861 79.8871L80.8862 76.4667C78.286 77.391 76.4322 76.8943 75.325 74.9765C74.7646 74.0059 74.633 73.0217 74.93 72.0239C75.2203 71.0143 75.8453 70.139 76.805 69.3978L76.4708 68.8189C76.2953 68.5149 76.2495 68.2061 76.3335 67.8925C76.4225 67.5605 76.619 67.3067 76.923 67.1312C77.2154 66.9624 77.5217 66.9259 77.842 67.0216C78.1556 67.1056 78.4001 67.2996 78.5757 67.6037L78.9504 68.2527C80.0456 67.8542 81.0735 67.7441 82.034 67.9224C82.5284 67.9956 82.8768 68.2076 83.0794 68.5584C83.2347 68.8273 83.2737 69.1244 83.1964 69.4497C83.1124 69.7633 82.9359 69.9977 82.6669 70.153C82.4915 70.2542 82.3033 70.2928 82.1022 70.2685C81.5826 70.1787 80.9405 70.2143 80.1758 70.3751L82.0493 73.6201C83.3389 73.2342 84.3928 73.1558 85.2112 73.385C86.0228 73.6024 86.7189 74.214 87.2995 75.2197ZM77.3442 73.6938C77.567 74.0797 77.872 74.3246 78.2594 74.4284C78.64 74.5205 79.1105 74.4983 79.671 74.3618L77.9899 71.45C77.5644 71.8204 77.2998 72.1992 77.196 72.5866C77.0922 72.9739 77.1416 73.343 77.3442 73.6938ZM84.8747 78.514C85.1329 78.1779 85.303 77.8379 85.3852 77.4942C85.4607 77.1388 85.4208 76.8267 85.2655 76.5577C85.0764 76.2303 84.8209 76.0036 84.4987 75.8778C84.1699 75.7402 83.7652 75.701 83.2848 75.7601L84.8747 78.514Z" fill="#ED654C"/>
<circle cx="43.9242" cy="101.27" r="14.5666" transform="rotate(30 43.9242 101.27)" fill="#D15842"/>
<path d="M46.5612 106.541C46.0414 107.442 45.2985 108.026 44.3326 108.295C43.3667 108.564 42.3494 108.53 41.2806 108.193L40.6528 109.281C40.4772 109.585 40.2268 109.776 39.9016 109.853C39.5812 109.949 39.2691 109.909 38.965 109.733C38.6727 109.564 38.4879 109.317 38.4106 108.992C38.3266 108.679 38.3723 108.37 38.5479 108.066L39.115 107.083C38.5173 106.66 38.0161 106.192 37.6114 105.677C37.2184 105.17 36.8978 104.564 36.6498 103.859C36.4961 103.396 36.5171 102.995 36.7129 102.656C36.8682 102.387 37.1026 102.211 37.4162 102.127C37.7365 102.031 38.037 102.064 38.3176 102.226C38.5398 102.355 38.6981 102.539 38.7925 102.781C38.9862 103.283 39.1961 103.716 39.4223 104.08C39.6552 104.433 39.9477 104.75 40.2999 105.031L42.2747 101.611C40.174 99.8211 39.6773 97.9673 40.7845 96.0495C41.3449 95.079 42.1314 94.4728 43.1441 94.2311C44.1635 93.9777 45.2341 94.0813 46.3559 94.5419L46.6901 93.963C46.8656 93.659 47.1102 93.465 47.4237 93.3809C47.7557 93.292 48.0738 93.3353 48.3778 93.5108C48.6702 93.6796 48.855 93.9266 48.9322 94.2519C49.0162 94.5654 48.9705 94.8742 48.795 95.1783L48.4202 95.8273C49.313 96.5766 49.9222 97.4117 50.2481 98.3326C50.4319 98.7974 50.4225 99.2051 50.22 99.5559C50.0647 99.8249 49.8269 100.007 49.5066 100.103C49.193 100.187 48.9018 100.151 48.6328 99.9961C48.4574 99.8948 48.3299 99.751 48.2504 99.5648C48.0683 99.0699 47.7165 98.5315 47.1949 97.9497L45.3214 101.195C46.3004 102.119 46.8952 102.992 47.1059 103.815C47.3234 104.627 47.1418 105.536 46.5612 106.541ZM42.905 97.1568C42.6822 97.5427 42.6227 97.9293 42.7264 98.3167C42.837 98.6924 43.0915 99.0887 43.4899 99.5059L45.171 96.5941C44.6375 96.4109 44.1771 96.3711 43.7898 96.4749C43.4024 96.5787 43.1075 96.806 42.905 97.1568ZM42.4959 106.089C42.916 106.144 43.2955 106.121 43.6342 106.021C43.9798 105.908 44.2302 105.718 44.3854 105.449C44.5745 105.121 44.643 104.787 44.5909 104.445C44.5456 104.091 44.3772 103.721 44.0858 103.335L42.4959 106.089Z" fill="#ED654C"/>
</svg>
